<mxfile host="app.diagrams.net" modified="2023-11-23T08:06:41.561Z" agent="Mozilla/5.0 (Windows NT 10.0; Win64; x64) AppleWebKit/537.36 (KHTML, like Gecko) Chrome/116.0.0.0 Safari/537.36" etag="lMawHHhBMQEWSgqcJA2q" version="22.1.3" type="device">
  <diagram id="C5RBs43oDa-KdzZeNtuy" name="Page-1">
    <mxGraphModel dx="1006" dy="559" grid="1" gridSize="10" guides="1" tooltips="1" connect="1" arrows="1" fold="1" page="1" pageScale="1" pageWidth="827" pageHeight="1169" math="0" shadow="0">
      <root>
        <mxCell id="WIyWlLk6GJQsqaUBKTNV-0" />
        <mxCell id="WIyWlLk6GJQsqaUBKTNV-1" parent="WIyWlLk6GJQsqaUBKTNV-0" />
        <mxCell id="I_qiKSHU0VAtBrcLUaXi-0" value="Bắt đầu" style="ellipse;whiteSpace=wrap;html=1;" vertex="1" parent="WIyWlLk6GJQsqaUBKTNV-1">
          <mxGeometry x="140" width="80" height="40" as="geometry" />
        </mxCell>
        <mxCell id="I_qiKSHU0VAtBrcLUaXi-1" value="Chọn tài khoản cư dân" style="shape=parallelogram;perimeter=parallelogramPerimeter;whiteSpace=wrap;html=1;fixedSize=1;" vertex="1" parent="WIyWlLk6GJQsqaUBKTNV-1">
          <mxGeometry x="125" y="70" width="110" height="50" as="geometry" />
        </mxCell>
        <mxCell id="I_qiKSHU0VAtBrcLUaXi-2" value="Chọn tòa" style="shape=parallelogram;perimeter=parallelogramPerimeter;whiteSpace=wrap;html=1;fixedSize=1;" vertex="1" parent="WIyWlLk6GJQsqaUBKTNV-1">
          <mxGeometry x="120" y="150" width="110" height="50" as="geometry" />
        </mxCell>
        <mxCell id="I_qiKSHU0VAtBrcLUaXi-3" value="Chọn tầng" style="shape=parallelogram;perimeter=parallelogramPerimeter;whiteSpace=wrap;html=1;fixedSize=1;" vertex="1" parent="WIyWlLk6GJQsqaUBKTNV-1">
          <mxGeometry x="120" y="230" width="110" height="50" as="geometry" />
        </mxCell>
        <mxCell id="I_qiKSHU0VAtBrcLUaXi-4" value="Chọn phòng" style="shape=parallelogram;perimeter=parallelogramPerimeter;whiteSpace=wrap;html=1;fixedSize=1;" vertex="1" parent="WIyWlLk6GJQsqaUBKTNV-1">
          <mxGeometry x="120" y="310" width="110" height="50" as="geometry" />
        </mxCell>
        <mxCell id="I_qiKSHU0VAtBrcLUaXi-5" value="Bãi xe" style="rhombus;whiteSpace=wrap;html=1;" vertex="1" parent="WIyWlLk6GJQsqaUBKTNV-1">
          <mxGeometry x="135" y="400" width="80" height="80" as="geometry" />
        </mxCell>
        <mxCell id="I_qiKSHU0VAtBrcLUaXi-6" value="Chọn loại xe" style="shape=parallelogram;perimeter=parallelogramPerimeter;whiteSpace=wrap;html=1;fixedSize=1;" vertex="1" parent="WIyWlLk6GJQsqaUBKTNV-1">
          <mxGeometry x="316" y="415" width="110" height="50" as="geometry" />
        </mxCell>
        <mxCell id="I_qiKSHU0VAtBrcLUaXi-7" value="Chọn bãi xe" style="shape=parallelogram;perimeter=parallelogramPerimeter;whiteSpace=wrap;html=1;fixedSize=1;" vertex="1" parent="WIyWlLk6GJQsqaUBKTNV-1">
          <mxGeometry x="310" y="550" width="116" height="50" as="geometry" />
        </mxCell>
        <mxCell id="I_qiKSHU0VAtBrcLUaXi-8" value="Điền nội dung hợp đồng" style="shape=parallelogram;perimeter=parallelogramPerimeter;whiteSpace=wrap;html=1;fixedSize=1;" vertex="1" parent="WIyWlLk6GJQsqaUBKTNV-1">
          <mxGeometry x="120" y="550" width="110" height="50" as="geometry" />
        </mxCell>
        <mxCell id="I_qiKSHU0VAtBrcLUaXi-9" value="Chọn ngày bắt đầu hợp đồng" style="shape=parallelogram;perimeter=parallelogramPerimeter;whiteSpace=wrap;html=1;fixedSize=1;" vertex="1" parent="WIyWlLk6GJQsqaUBKTNV-1">
          <mxGeometry x="120" y="630" width="110" height="50" as="geometry" />
        </mxCell>
        <mxCell id="I_qiKSHU0VAtBrcLUaXi-10" value="Chọn ngày kết thúc hợp đồng" style="shape=parallelogram;perimeter=parallelogramPerimeter;whiteSpace=wrap;html=1;fixedSize=1;" vertex="1" parent="WIyWlLk6GJQsqaUBKTNV-1">
          <mxGeometry x="120" y="710" width="110" height="50" as="geometry" />
        </mxCell>
        <mxCell id="I_qiKSHU0VAtBrcLUaXi-11" value="Kết thúc" style="ellipse;whiteSpace=wrap;html=1;" vertex="1" parent="WIyWlLk6GJQsqaUBKTNV-1">
          <mxGeometry x="470" y="790" width="80" height="50" as="geometry" />
        </mxCell>
        <mxCell id="I_qiKSHU0VAtBrcLUaXi-28" value="" style="edgeStyle=orthogonalEdgeStyle;rounded=0;orthogonalLoop=1;jettySize=auto;html=1;" edge="1" parent="WIyWlLk6GJQsqaUBKTNV-1" source="I_qiKSHU0VAtBrcLUaXi-12" target="I_qiKSHU0VAtBrcLUaXi-13">
          <mxGeometry relative="1" as="geometry" />
        </mxCell>
        <mxCell id="I_qiKSHU0VAtBrcLUaXi-12" value="Thêm hợp đồng" style="shape=parallelogram;perimeter=parallelogramPerimeter;whiteSpace=wrap;html=1;fixedSize=1;" vertex="1" parent="WIyWlLk6GJQsqaUBKTNV-1">
          <mxGeometry x="120" y="790" width="110" height="50" as="geometry" />
        </mxCell>
        <mxCell id="I_qiKSHU0VAtBrcLUaXi-27" value="" style="edgeStyle=orthogonalEdgeStyle;rounded=0;orthogonalLoop=1;jettySize=auto;html=1;" edge="1" parent="WIyWlLk6GJQsqaUBKTNV-1" source="I_qiKSHU0VAtBrcLUaXi-13" target="I_qiKSHU0VAtBrcLUaXi-11">
          <mxGeometry relative="1" as="geometry" />
        </mxCell>
        <mxCell id="I_qiKSHU0VAtBrcLUaXi-13" value="Thêm thành công" style="rounded=0;whiteSpace=wrap;html=1;" vertex="1" parent="WIyWlLk6GJQsqaUBKTNV-1">
          <mxGeometry x="316" y="790" width="94" height="50" as="geometry" />
        </mxCell>
        <mxCell id="I_qiKSHU0VAtBrcLUaXi-14" value="" style="endArrow=classic;html=1;rounded=0;" edge="1" parent="WIyWlLk6GJQsqaUBKTNV-1" source="I_qiKSHU0VAtBrcLUaXi-0" target="I_qiKSHU0VAtBrcLUaXi-1">
          <mxGeometry width="50" height="50" relative="1" as="geometry">
            <mxPoint x="420" y="-80" as="sourcePoint" />
            <mxPoint x="470" y="-130" as="targetPoint" />
          </mxGeometry>
        </mxCell>
        <mxCell id="I_qiKSHU0VAtBrcLUaXi-15" value="" style="endArrow=classic;html=1;rounded=0;" edge="1" parent="WIyWlLk6GJQsqaUBKTNV-1" source="I_qiKSHU0VAtBrcLUaXi-1" target="I_qiKSHU0VAtBrcLUaXi-2">
          <mxGeometry width="50" height="50" relative="1" as="geometry">
            <mxPoint x="420" y="110" as="sourcePoint" />
            <mxPoint x="470" y="60" as="targetPoint" />
          </mxGeometry>
        </mxCell>
        <mxCell id="I_qiKSHU0VAtBrcLUaXi-16" value="" style="endArrow=classic;html=1;rounded=0;" edge="1" parent="WIyWlLk6GJQsqaUBKTNV-1" source="I_qiKSHU0VAtBrcLUaXi-2" target="I_qiKSHU0VAtBrcLUaXi-3">
          <mxGeometry width="50" height="50" relative="1" as="geometry">
            <mxPoint x="420" y="310" as="sourcePoint" />
            <mxPoint x="470" y="260" as="targetPoint" />
          </mxGeometry>
        </mxCell>
        <mxCell id="I_qiKSHU0VAtBrcLUaXi-17" value="" style="endArrow=classic;html=1;rounded=0;" edge="1" parent="WIyWlLk6GJQsqaUBKTNV-1" source="I_qiKSHU0VAtBrcLUaXi-3" target="I_qiKSHU0VAtBrcLUaXi-4">
          <mxGeometry width="50" height="50" relative="1" as="geometry">
            <mxPoint x="420" y="310" as="sourcePoint" />
            <mxPoint x="470" y="260" as="targetPoint" />
          </mxGeometry>
        </mxCell>
        <mxCell id="I_qiKSHU0VAtBrcLUaXi-18" value="" style="endArrow=classic;html=1;rounded=0;" edge="1" parent="WIyWlLk6GJQsqaUBKTNV-1" source="I_qiKSHU0VAtBrcLUaXi-4" target="I_qiKSHU0VAtBrcLUaXi-5">
          <mxGeometry width="50" height="50" relative="1" as="geometry">
            <mxPoint x="420" y="310" as="sourcePoint" />
            <mxPoint x="470" y="260" as="targetPoint" />
          </mxGeometry>
        </mxCell>
        <mxCell id="I_qiKSHU0VAtBrcLUaXi-19" value="" style="endArrow=classic;html=1;rounded=0;" edge="1" parent="WIyWlLk6GJQsqaUBKTNV-1" source="I_qiKSHU0VAtBrcLUaXi-5" target="I_qiKSHU0VAtBrcLUaXi-6">
          <mxGeometry width="50" height="50" relative="1" as="geometry">
            <mxPoint x="420" y="510" as="sourcePoint" />
            <mxPoint x="470" y="460" as="targetPoint" />
          </mxGeometry>
        </mxCell>
        <mxCell id="I_qiKSHU0VAtBrcLUaXi-29" value="Có" style="edgeLabel;html=1;align=center;verticalAlign=middle;resizable=0;points=[];" vertex="1" connectable="0" parent="I_qiKSHU0VAtBrcLUaXi-19">
          <mxGeometry x="-0.1459" y="3" relative="1" as="geometry">
            <mxPoint as="offset" />
          </mxGeometry>
        </mxCell>
        <mxCell id="I_qiKSHU0VAtBrcLUaXi-20" value="" style="endArrow=classic;html=1;rounded=0;" edge="1" parent="WIyWlLk6GJQsqaUBKTNV-1" source="I_qiKSHU0VAtBrcLUaXi-6" target="I_qiKSHU0VAtBrcLUaXi-7">
          <mxGeometry width="50" height="50" relative="1" as="geometry">
            <mxPoint x="420" y="510" as="sourcePoint" />
            <mxPoint x="470" y="460" as="targetPoint" />
          </mxGeometry>
        </mxCell>
        <mxCell id="I_qiKSHU0VAtBrcLUaXi-21" value="" style="endArrow=classic;html=1;rounded=0;" edge="1" parent="WIyWlLk6GJQsqaUBKTNV-1" source="I_qiKSHU0VAtBrcLUaXi-5" target="I_qiKSHU0VAtBrcLUaXi-8">
          <mxGeometry width="50" height="50" relative="1" as="geometry">
            <mxPoint x="420" y="510" as="sourcePoint" />
            <mxPoint x="470" y="460" as="targetPoint" />
          </mxGeometry>
        </mxCell>
        <mxCell id="I_qiKSHU0VAtBrcLUaXi-30" value="Không" style="edgeLabel;html=1;align=center;verticalAlign=middle;resizable=0;points=[];" vertex="1" connectable="0" parent="I_qiKSHU0VAtBrcLUaXi-21">
          <mxGeometry x="-0.2057" y="1" relative="1" as="geometry">
            <mxPoint as="offset" />
          </mxGeometry>
        </mxCell>
        <mxCell id="I_qiKSHU0VAtBrcLUaXi-22" value="" style="endArrow=classic;html=1;rounded=0;" edge="1" parent="WIyWlLk6GJQsqaUBKTNV-1" source="I_qiKSHU0VAtBrcLUaXi-7" target="I_qiKSHU0VAtBrcLUaXi-8">
          <mxGeometry width="50" height="50" relative="1" as="geometry">
            <mxPoint x="420" y="510" as="sourcePoint" />
            <mxPoint x="470" y="460" as="targetPoint" />
          </mxGeometry>
        </mxCell>
        <mxCell id="I_qiKSHU0VAtBrcLUaXi-23" value="" style="endArrow=classic;html=1;rounded=0;" edge="1" parent="WIyWlLk6GJQsqaUBKTNV-1" source="I_qiKSHU0VAtBrcLUaXi-8" target="I_qiKSHU0VAtBrcLUaXi-9">
          <mxGeometry width="50" height="50" relative="1" as="geometry">
            <mxPoint x="420" y="510" as="sourcePoint" />
            <mxPoint x="470" y="460" as="targetPoint" />
          </mxGeometry>
        </mxCell>
        <mxCell id="I_qiKSHU0VAtBrcLUaXi-24" value="" style="endArrow=classic;html=1;rounded=0;" edge="1" parent="WIyWlLk6GJQsqaUBKTNV-1" source="I_qiKSHU0VAtBrcLUaXi-9" target="I_qiKSHU0VAtBrcLUaXi-10">
          <mxGeometry width="50" height="50" relative="1" as="geometry">
            <mxPoint x="420" y="810" as="sourcePoint" />
            <mxPoint x="470" y="760" as="targetPoint" />
          </mxGeometry>
        </mxCell>
        <mxCell id="I_qiKSHU0VAtBrcLUaXi-25" value="" style="endArrow=classic;html=1;rounded=0;" edge="1" parent="WIyWlLk6GJQsqaUBKTNV-1" source="I_qiKSHU0VAtBrcLUaXi-10" target="I_qiKSHU0VAtBrcLUaXi-12">
          <mxGeometry width="50" height="50" relative="1" as="geometry">
            <mxPoint x="420" y="810" as="sourcePoint" />
            <mxPoint x="470" y="760" as="targetPoint" />
          </mxGeometry>
        </mxCell>
      </root>
    </mxGraphModel>
  </diagram>
</mxfile>
